# xmcd
#
# Track frame offsets: 
#        150
#        24040
#        49665
#        71125
#        95840
#        117325
#        140735
#        162225
#        181525
#        208610
#
# Disc length: 3154 seconds
#
# Revision: 0
# Processed by: cddbd v1.5.2PL0 Copyright (c) Steve Scherf et al.
# Submitted via: ExactAudioCopy v1.0b3
#
DISCID=870c500a
DTITLE=Tai Linh, VA - Mua Bui 2
DYEAR=1900
DGENRE=
TTITLE0=Tai Linh, Dinh Van - Mua bui 2
TTITLE1=Tai Linh, Dinh Van - Hoi nang Xuan
TTITLE2=Tai Linh, Vu Minh - Doi tim hoa sim
TTITLE3=Tai Linh, Kim Tu Long - Xa nguoi yeu
TTITLE4=Tai Linh, Tran Sang - Khong con nho nguoi yeu
TTITLE5=Tai Linh, Dinh Van - Hai ban tay trang
TTITLE6=Tai Linh, Ngoc Hai - Tinh doi
TTITLE7=Tai Linh, Che Thanh - Du anh ngheo
TTITLE8=Tai Linh, Tuan Canh - Loi ta tu
TTITLE9=Tai Linh, Vu Linh - Mua dong cua anh
EXTD=
EXTT0=
EXTT1=
EXTT2=
EXTT3=
EXTT4=
EXTT5=
EXTT6=
EXTT7=
EXTT8=
EXTT9=
PLAYORDER=
